<?xml version="1.0" standalone="no"?>
<!DOCTYPE svg PUBLIC "-//W3C//DTD SVG 20010904//EN"
 "http://www.w3.org/TR/2001/REC-SVG-20010904/DTD/svg10.dtd">
<svg version="1.0" xmlns="http://www.w3.org/2000/svg"
 width="16.000000pt" height="16.000000pt" viewBox="0 0 16.000000 16.000000"
 preserveAspectRatio="xMidYMid meet">

<g transform="translate(0.000000,16.000000) scale(0.100000,-0.100000)"
fill="#000000" stroke="none">
<path d="M17 143 c-2 -5 -3 -21 -2 -37 2 -28 29 -50 48 -39 4 2 7 -5 7 -16 0
-11 5 -23 10 -26 6 -3 10 -1 10 4 0 6 10 11 23 11 21 -1 22 -1 3 -15 -21 -16
-11 -21 12 -7 16 11 26 62 12 62 -6 0 -8 -4 -5 -10 4 -6 -6 -10 -22 -10 -27 0
-28 3 -28 42 0 25 -5 42 -13 44 -7 1 -8 0 -2 -3 19 -9 10 -23 -16 -23 -19 0
-25 4 -20 15 5 15 -9 22 -17 8z"/>
</g>
</svg>
